<?xml version="1.0" encoding="UTF-8" standalone="yes"?>
<svg xmlns="http://www.w3.org/2000/svg" viewBox="0 0 30 30" width="120" height="120" fill="#000000">
  <path d="M 15 2.9980469 C 13.017 2.9980469 11.269172 6.5895937 10.076172 11.558594 C 10.059172 11.587594 10.043297 11.623016 10.029297 11.666016 C 9.5362969 13.183016 5.0234375 14.775187 5.0234375 16.367188 C 5.0234375 17.587187 7.178 17.181047 9 16.998047 C 8.688 19.014047 8.4395781 21.257 8.2675781 23 L 21.605469 23 C 21.262469 20.543 20.723797 17.013703 20.091797 14.095703 C 21.842797 13.213703 23.962891 10.836109 23.962891 9.0371094 C 23.962891 8.0761094 23.522469 7.8964844 23.230469 7.8964844 C 22.580469 7.8964844 22.019 9.5730469 19 9.9980469 C 17.853 5.5410469 16.813 2.9980469 15 2.9980469 z M 15 7 C 15.828 7 16.5 7.448 16.5 8 C 16.5 8.552 15.828 9 15 9 C 14.172 9 13.5 8.552 13.5 8 C 13.5 7.448 14.172 7 15 7 z M 15 11 C 16.105 11 17 11.672 17 12.5 C 17 13.328 16.105 14 15 14 C 13.895 14 13 13.328 13 12.5 C 13 11.672 13.895 11 15 11 z M 15 17 C 16.657 17 18 17.895 18 19 C 18 20.105 16.657 21 15 21 C 13.343 21 12 20.105 12 19 C 12 17.895 13.343 17 15 17 z M 8 25 A 1.0001 1.0001 0 1 0 8 27 L 22 27 A 1.0001 1.0001 0 1 0 22 25 L 8 25 z"/>
</svg>
