<?xml version="1.0" encoding="utf-8"?>
<!-- Generator: Adobe Illustrator 17.0.0, SVG Export Plug-In . SVG Version: 6.00 Build 0)  -->
<!DOCTYPE svg PUBLIC "-//W3C//DTD SVG 1.1//EN" "http://www.w3.org/Graphics/SVG/1.1/DTD/svg11.dtd">
<svg version="1.1" id="Capa_1" xmlns="http://www.w3.org/2000/svg" xmlns:xlink="http://www.w3.org/1999/xlink" x="0px" y="0px"
	 width="50px" height="61.899px" viewBox="0 -9.899 50 61.899" enable-background="new 0 -9.899 50 61.899" xml:space="preserve">
<title>Logomark</title>
<path stroke="#000000" stroke-width="1.4" stroke-miterlimit="10" d="M48.333,14.072c0.017,0.064,0.026,0.129,0.026,0.195v10.244
	c0,0.268-0.143,0.515-0.375,0.648l-8.598,4.95v9.812c0,0.267-0.142,0.514-0.373,0.648L21.065,50.901
	c-0.041,0.023-0.086,0.038-0.131,0.054c-0.017,0.006-0.033,0.016-0.05,0.021c-0.125,0.033-0.257,0.033-0.383,0
	c-0.021-0.006-0.039-0.017-0.059-0.024c-0.041-0.015-0.084-0.028-0.123-0.05L2.375,40.569C2.143,40.436,2,40.188,2,39.921V9.189
	c0-0.067,0.009-0.133,0.026-0.196C2.032,8.972,2.045,8.952,2.052,8.93C2.066,8.891,2.079,8.851,2.1,8.815
	C2.114,8.79,2.134,8.771,2.151,8.748c0.021-0.03,0.041-0.061,0.066-0.087C2.239,8.64,2.267,8.624,2.291,8.606
	c0.027-0.022,0.051-0.047,0.082-0.064h0.001l8.972-5.166c0.231-0.133,0.516-0.133,0.747,0l8.972,5.166h0.002
	c0.03,0.019,0.055,0.042,0.082,0.063c0.024,0.019,0.051,0.035,0.073,0.056c0.026,0.027,0.045,0.058,0.067,0.088
	c0.016,0.022,0.037,0.042,0.05,0.066c0.021,0.037,0.034,0.077,0.049,0.116c0.007,0.021,0.021,0.041,0.026,0.063
	c0.017,0.064,0.026,0.129,0.026,0.195v19.195l7.477-4.305v-9.813c0-0.065,0.009-0.132,0.026-0.194
	c0.007-0.022,0.019-0.042,0.026-0.063c0.015-0.039,0.028-0.079,0.049-0.116c0.014-0.024,0.035-0.044,0.05-0.066
	c0.022-0.03,0.041-0.061,0.067-0.087c0.021-0.021,0.049-0.037,0.073-0.056c0.028-0.022,0.052-0.047,0.082-0.064h0.001l8.973-5.166
	c0.231-0.133,0.516-0.133,0.747,0l8.972,5.166c0.032,0.019,0.056,0.042,0.084,0.063c0.023,0.019,0.05,0.035,0.072,0.056
	c0.026,0.027,0.045,0.058,0.067,0.088c0.017,0.022,0.037,0.042,0.05,0.066c0.021,0.036,0.034,0.077,0.049,0.116
	C48.315,14.03,48.327,14.05,48.333,14.072z M46.863,24.079V15.56l-3.14,1.808l-4.338,2.497v8.519L46.863,24.079L46.863,24.079z
	 M37.891,39.489v-8.524l-4.267,2.437L21.44,40.355v8.604C21.44,48.959,37.891,39.489,37.891,39.489z M3.496,10.482v29.006
	l16.449,9.47v-8.603l-8.593-4.863l-0.003-0.002l-0.004-0.002c-0.029-0.017-0.053-0.041-0.08-0.062
	c-0.023-0.019-0.05-0.034-0.071-0.054l-0.002-0.003c-0.024-0.023-0.041-0.052-0.062-0.078c-0.019-0.025-0.041-0.047-0.056-0.073
	l-0.001-0.003c-0.017-0.028-0.027-0.062-0.039-0.093c-0.012-0.028-0.028-0.054-0.035-0.084v-0.001
	c-0.009-0.035-0.011-0.073-0.015-0.109c-0.004-0.028-0.011-0.056-0.011-0.084v-0.002V14.787l-4.337-2.498L3.496,10.482L3.496,10.482
	z M11.721,4.886L4.245,9.189l7.474,4.303l7.475-4.304l-7.475-4.302L11.721,4.886z M15.609,31.741l4.337-2.497V10.482l-3.14,1.808
	l-4.338,2.497V33.55C12.468,33.55,15.609,31.741,15.609,31.741z M38.639,9.964l-7.475,4.303l7.475,4.303l7.474-4.304
	C46.113,14.266,38.639,9.964,38.639,9.964z M37.891,19.865l-4.338-2.497l-3.14-1.808v8.519l4.337,2.497l3.141,1.808
	C37.891,28.384,37.891,19.865,37.891,19.865z M20.692,39.062l10.964-6.259l5.48-3.128l-7.469-4.3l-8.6,4.951l-7.838,4.512
	C13.229,34.838,20.692,39.062,20.692,39.062z"/>
</svg>
